<svg xmlns="http://www.w3.org/2000/svg" width="880" height="660" viewBox="0 0 880 660" role="img" aria-labelledby="t d">
<title id="t">5 · Especificações e 6 · Aplicação típica</title>
<desc id="d">Formação: Engenharia da Computação, em curso. Função: Tech Lead de desenvolvimento e automação. Áreas: IoT, robótica, IA e visão computacional. Aplicação: agricultura inteligente e sustentabilidade. Origem: Brasil. Projeto em destaque: Aplicativo de Eventos, com cadastro de usuários e busca por geolocalização, em React Native e Node.js, para web e mobile.</desc>
<style>
/*FONTS*/
.m{font-family:'LTG Mono',ui-monospace,SFMono-Regular,Menlo,Consolas,monospace}
.b{font-weight:600}
.c{font-family:'LTG Cond','Arial Narrow',sans-serif;font-weight:700}
.x{font-family:'LTG XCond','Arial Narrow',sans-serif;font-weight:800}
.ink{fill:#16181A}.mut{fill:#5A5850}.acc{fill:#0B7A4B}.pap{fill:#F2EFE6}.dim{fill:#A8A496}
.net{fill:none;stroke:#16181A;stroke-width:2}
.flow{fill:none;stroke:#0B7A4B;stroke-width:2;stroke-dasharray:6 10;animation:flow 1.2s linear infinite}
@keyframes flow{to{stroke-dashoffset:-32}}
@media (prefers-reduced-motion:reduce){.flow{animation:none}}
</style>
<rect x="0.5" y="0.5" width="879" height="659" rx="8" fill="#F2EFE6" stroke="#D9D4C7"/>

<text class="x acc" x="40" y="60" font-size="20">5</text>
<text class="c ink" x="56" y="60" font-size="18" letter-spacing="1">ESPECIFICAÇÕES</text>
<rect class="ink" x="40" y="72" width="800" height="1"/>

<g class="m" font-size="13">
  <rect class="ink" x="40" y="92" width="800" height="2"/>
  <text class="b ink" x="40" y="116" letter-spacing="0.5">PARÂMETRO</text><text class="b ink" x="290" y="116" letter-spacing="0.5">VALOR</text><text class="b ink" x="840" y="116" letter-spacing="0.5" text-anchor="end">NOTA</text>
  <rect class="ink" x="40" y="126" width="800" height="2"/>
  <text class="ink" x="40" y="152">Formação</text><text class="b ink" x="290" y="152">Engenharia da Computação</text><text class="mut" x="840" y="152" text-anchor="end">em curso</text>
  <rect x="40" y="164" width="800" height="1" fill="#CFC9BA"/>
  <text class="ink" x="40" y="188">Função</text><text class="b ink" x="290" y="188">Tech Lead de desenvolvimento e automação</text><text class="mut" x="840" y="188" text-anchor="end">atual</text>
  <rect x="40" y="200" width="800" height="1" fill="#CFC9BA"/>
  <text class="ink" x="40" y="224">Faixa de operação</text><text class="b ink" x="290" y="224">IoT · Robótica · IA · Visão computacional</text>
  <rect x="40" y="236" width="800" height="1" fill="#CFC9BA"/>
  <text class="ink" x="40" y="260">Domínio de aplicação</text><text class="b ink" x="290" y="260">Agricultura inteligente e sustentabilidade</text>
  <rect x="40" y="272" width="800" height="1" fill="#CFC9BA"/>
  <text class="ink" x="40" y="296">Origem</text><text class="b ink" x="290" y="296">Brasil</text>
  <rect x="40" y="308" width="800" height="1" fill="#CFC9BA"/>
  <text class="ink" x="40" y="332">Tempo a perder</text><text class="b acc" x="290" y="332">0 s</text><text class="mut" x="840" y="332" text-anchor="end">máx.</text>
  <rect class="ink" x="40" y="344" width="800" height="2"/>
</g>

<text class="x acc" x="40" y="410" font-size="20">6</text>
<text class="c ink" x="56" y="410" font-size="18" letter-spacing="1">APLICAÇÃO TÍPICA</text>
<text class="m mut" x="840" y="410" font-size="12" letter-spacing="1" text-anchor="end">PROJETO EM DESTAQUE</text>
<rect class="ink" x="40" y="422" width="800" height="1"/>

<rect x="41" y="451" width="188" height="54" fill="none" stroke="#16181A" stroke-width="2"/>
<text class="m b ink" x="54" y="474" font-size="13" letter-spacing="0.5">CLIENTE WEB</text>
<text class="m mut" x="54" y="494" font-size="12">navegador</text>
<rect x="41" y="521" width="188" height="54" fill="none" stroke="#16181A" stroke-width="2"/>
<text class="m b ink" x="54" y="544" font-size="13" letter-spacing="0.5">CLIENTE MOBILE</text>
<text class="m mut" x="54" y="564" font-size="12">React Native</text>

<path class="net" d="M230 478 H262 V548 H230 M262 513 H331"/>
<path class="flow" d="M230 478 H262 V513 H331"/>
<path class="flow" d="M230 548 H262 V513"/>
<circle class="ink" cx="262" cy="513" r="4"/>
<path class="ink" d="M330 507 L340 513 L330 519 Z"/>

<rect class="ink" x="340" y="473" width="170" height="80"/>
<text class="x pap" x="356" y="508" font-size="26">API</text>
<text class="m dim" x="356" y="530" font-size="12">Node.js</text>

<path class="net" d="M510 513 H578 M578 478 V548 M578 478 H621 M578 548 H621"/>
<path class="flow" d="M510 513 H578 V478 H621"/>
<path class="flow" d="M578 513 V548 H621"/>
<circle class="ink" cx="578" cy="513" r="4"/>
<path class="ink" d="M620 472 L630 478 L620 484 Z"/>
<path class="ink" d="M620 542 L630 548 L620 554 Z"/>

<rect x="631" y="451" width="208" height="54" fill="none" stroke="#16181A" stroke-width="2"/>
<text class="m b ink" x="644" y="474" font-size="13" letter-spacing="0.5">CADASTRO</text>
<text class="m mut" x="644" y="494" font-size="12">de usuários</text>
<rect x="631" y="521" width="208" height="54" fill="none" stroke="#0B7A4B" stroke-width="2"/>
<text class="m b acc" x="644" y="544" font-size="13" letter-spacing="0.5">BUSCA</text>
<text class="m mut" x="644" y="564" font-size="12">por geolocalização</text>

<text class="m mut" x="40" y="604" font-size="12">Figura 2 · Aplicativo de Eventos: cadastro de usuários e busca por geolocalização.</text>
<text class="m mut" x="40" y="622" font-size="12">React Native + Node.js, com suporte para web e mobile.</text>
</svg>
